<svg width="43" height="42" viewBox="0 0 43 42" fill="none" xmlns="http://www.w3.org/2000/svg">
<path d="M16.0407 10.6186L21.5303 19.3456L19.7153 20.2262L14.2257 11.4992L16.0407 10.6186Z" fill="#6B5551"/>
<path d="M16.0439 10.6145C16.0439 10.6145 15.6852 10.4297 14.5984 10.7776C13.8702 11.3103 14.0442 11.8537 14.0442 11.8537L16.0439 10.6145Z" fill="#9C7C76"/>
<path d="M21.7041 4.91066L15.8574 10.976L21.5317 19.3443L27.7479 12.5616L21.7041 4.91066Z" fill="#6B5551"/>
<path d="M21.7028 4.9131L15.856 10.9785L15.1387 10.609L21.1593 5.08706L21.7028 4.9131Z" fill="#9C7C76"/>
<path d="M6.79325 14.4759L14.5858 11.6818L19.7168 20.224L10.6634 22.8226L6.79325 14.4759Z" fill="#6B5551"/>
<path d="M6.79297 14.4751L14.5855 11.681L14.955 10.9636L7.16243 13.7577L6.79297 14.4751Z" fill="#9C7C76"/>
<path d="M21.694 5.81266L15.8473 11.878L8.05469 14.6721L19.9129 18.964L21.694 5.81266Z" fill="white"/>
<path d="M15.8453 11.8778C15.8453 11.8778 17.6496 11.8994 18.9319 10.2907C20.0403 8.13856 21.6921 5.81248 21.6921 5.81248L26.6598 12.9092C26.6598 12.9092 24.4538 16.3114 23.3562 17.5614C21.8999 18.6267 20.0957 18.6051 20.0957 18.6051L15.8453 11.8778Z" fill="#D1D1D1"/>
<path d="M15.848 11.8766C15.848 11.8766 14.9244 13.6701 12.9354 14.0072C10.9465 14.3443 8.05546 14.6707 8.05546 14.6707L11.7624 21.5719C11.7624 21.5719 15.5556 21.2563 17.1858 20.7345C19.1748 20.3973 20.0984 18.6039 20.0984 18.6039L15.848 11.8766Z" fill="#D1D1D1"/>
<path d="M13.6616 13.4758L18.2707 20.3878L16.097 21.0837L11.6727 13.813L13.6616 13.4758Z" fill="#E0E0E0"/>
<path d="M17.6618 10.996L22.2708 17.908L23.9118 16.484L18.9441 9.38724L17.6618 10.996Z" fill="#E0E0E0"/>
<path d="M16.0325 11.5181L15.6738 11.3333L20.2721 19.1474L20.8155 18.9735L16.0325 11.5181Z" fill="#949494"/>
<path d="M35.159 26.3657C35.159 26.3657 35.4962 28.3547 34.0076 32.1263C32.519 35.8979 27.9869 37.6482 24.9219 37.4312C21.3135 37.3881 18.2916 33.5626 18.2916 33.5626L35.159 26.3657Z" fill="#692E00"/>
<path d="M18.1314 32.1117C18.1314 32.1117 16.2071 27.0363 17.6957 23.2647C18.9996 19.8517 24.2598 17.5687 26.064 17.5903C30.9332 17.8289 33.9336 23.4586 33.9336 23.4586L18.1314 32.1117Z" fill="#692E00"/>
<path d="M15.8043 30.4633C15.8043 30.4633 14.4127 26.116 14.0755 24.1271C13.7384 22.1381 13.7384 22.1381 14.4665 21.6055C14.836 20.8881 15.7596 19.0947 14.8575 19.0839C14.4989 18.8992 14.1186 20.5186 13.9339 20.8773C13.3905 21.0513 13.4013 20.1492 13.412 19.2471C13.6075 17.9863 14.8791 17.2797 14.5204 17.0949C14.1617 16.9102 12.5207 18.3342 12.3252 19.595C12.4884 21.0405 12.6623 21.5839 12.6408 23.3881C12.4453 24.6489 12.5762 28.8008 12.9133 30.7897C13.4352 32.42 16.1523 31.5502 15.8043 30.4633Z" fill="#FFCC75"/>
<path d="M17.0759 29.7562C17.0759 29.7562 15.1085 28.2891 14.0217 28.6371C12.9349 28.985 12.2067 29.5176 12.7286 31.1479C13.4352 32.4194 17.7287 35.5383 17.7287 35.5383L17.0759 29.7562Z" fill="#BF3900"/>
<path d="M31.6274 20.0053C31.6274 20.0053 28.7794 16.7233 26.986 15.7997C25.3773 14.5173 25.3773 14.5173 24.8339 14.6913C23.9318 14.6805 22.3123 14.3003 22.1383 13.7569C22.3231 13.3982 23.9425 13.7784 24.1273 13.4197C24.6707 13.2458 23.7794 12.3329 23.062 11.9634C21.9859 11.4092 20.5296 12.4745 20.5404 11.5724C20.5404 11.5724 22.7141 10.8766 24.1488 11.6155C25.2249 12.1697 25.7575 12.8978 27.1923 13.6368C28.627 14.3757 32.2139 16.223 33.4639 17.3206C34.5292 18.7769 32.5187 20.9182 31.6274 20.0053Z" fill="#FFCC75"/>
<path d="M30.8984 20.5405C30.8984 20.5405 30.2026 18.3668 31.1155 17.4755C32.0284 16.5842 32.9305 16.595 33.8218 17.5078C35.0718 18.6054 36.094 23.6702 36.094 23.6702L30.8984 20.5405Z" fill="#BF3900"/>
<path d="M16.1217 34.254C17.5456 35.895 19.8825 36.6447 21.8822 35.4054L34.0652 27.6113C36.0649 26.372 36.4559 23.8504 35.2167 21.8507C33.7927 20.2097 31.4558 19.46 29.4561 20.6992L17.2731 28.4934C15.6321 29.9174 14.8824 32.2543 16.1217 34.254Z" fill="#E36600"/>
<path d="M30.9374 20.0919C29.6161 18.0273 26.8713 17.4248 24.8068 18.7462C22.7423 20.0675 22.1398 22.8122 23.4611 24.8768C24.7824 26.9413 27.5272 27.5438 29.5917 26.2225C31.6562 24.9012 32.2587 22.1564 30.9374 20.0919Z" fill="#E36600"/>
<path d="M24.0097 24.3609C22.69 22.2955 19.9458 21.691 17.8804 23.0108C15.815 24.3306 15.2105 27.0748 16.5303 29.1402C17.85 31.2056 20.5943 31.81 22.6596 30.4902C24.725 29.1705 25.3295 26.4263 24.0097 24.3609Z" fill="#E36600"/>
<path d="M31.4147 23.4387C29.3737 20.2478 25.1323 19.3155 21.9413 21.3565C18.7504 23.3975 17.8181 27.6389 19.8591 30.8298C21.9001 34.0208 26.1415 34.953 29.3325 32.912C32.5234 30.871 33.4557 26.6297 31.4147 23.4387Z" fill="#1C1C1C"/>
<path d="M26.48 23.629C25.7593 22.5029 24.11 22.2716 22.7962 23.1124C21.4825 23.9533 21.0017 25.5478 21.7224 26.6739C22.4431 27.8 24.0924 28.0313 25.4062 27.1904C26.72 26.3496 27.2008 24.7551 26.48 23.629Z" fill="#303030"/>
<path d="M27.3343 31.8668C28.0624 31.3341 29.5187 30.2689 30.2361 30.6383C31.1382 30.6491 32.5514 33.1922 30.7041 36.7791C29.4648 34.7794 27.4759 35.1165 26.7693 33.845C26.5953 33.3015 26.6061 32.3994 27.3343 31.8668Z" fill="#1C1C1C"/>
</svg>
