<svg width="24" height="24" viewBox="0 0 24 24" fill="none" xmlns="http://www.w3.org/2000/svg">
<path fill-rule="evenodd" clip-rule="evenodd" d="M19.0049 20C19.5548 20 20 19.5547 20 19.0049V4.99509C20 4.44517 19.5547 4 19.0049 4H4.99509C4.44517 4 4 4.44526 4 4.99509V19.0049C4 19.5548 4.44526 20 4.99509 20H12V14H10.9995C10.4472 14 9.99951 13.5523 9.99951 13C9.99951 12.4477 10.4472 12 10.9995 12H12C12 10.1032 12.2142 8.90773 13.1039 7.91195C13.9836 6.9273 15.0117 6.5 16 6.5C16.5523 6.5 17 6.94772 17 7.5C17 8.05228 16.5523 8.5 16 8.5C15.5629 8.5 15.0818 8.69994 14.5953 9.24449C14.1525 9.74009 14 10.5912 14 12H16C16.5523 12 17 12.4477 17 13C17 13.5523 16.5523 14 16 14H14V20H19.0049ZM2 19.0049V4.99509C2 3.34078 3.3405 2 4.99509 2H19.0049C20.6592 2 22 3.3405 22 4.99509V19.0049C22 20.6592 20.6595 22 19.0049 22H4.99509C3.34078 22 2 20.6595 2 19.0049Z" fill="white"/>
</svg>
