<svg width="16" height="16" viewBox="0 0 16 16" fill="none" xmlns="http://www.w3.org/2000/svg">
<path fill-rule="evenodd" clip-rule="evenodd" d="M14.0016 5.33323C14.3692 5.33323 14.6673 5.63388 14.6673 6.00274V8.66372C14.6673 9.03348 14.3704 9.33323 14.0003 9.33323H13.334V14.003C13.334 14.3695 13.0376 14.6666 12.6667 14.6666H3.33457C2.96605 14.6666 2.66732 14.3672 2.66732 14.003V9.33323H2.00356C1.63376 9.33323 1.33398 9.03258 1.33398 8.66372V6.00274C1.33398 5.63298 1.63116 5.33323 1.99975 5.33323H4.28313C3.89901 4.90427 3.68245 4.37334 3.68245 3.72955C3.68245 2.24354 4.86503 1.2896 6.24802 1.41569C6.95928 1.48054 7.57709 1.81232 8.01038 2.3426C8.44366 1.81232 9.06148 1.48054 9.77273 1.41569C11.1557 1.2896 12.3383 2.24354 12.3383 3.72955C12.3383 4.37334 12.1217 4.90427 11.7376 5.33323H14.0016ZM7.33419 4.38076C7.34551 3.38271 6.83197 2.80773 6.12712 2.74346C5.48995 2.68537 5.01595 3.06773 5.01595 3.7295C5.01595 4.34074 5.48988 4.78448 6.39521 5.08907C6.73866 5.20462 7.30014 5.31821 7.34258 5.32672C7.34299 5.29061 7.33739 4.65285 7.33419 4.38076ZM10.001 13.3301H12.001V9.33321H10.001V13.3301ZM13.3343 7.99988V6.66654H10.001V7.99988H13.3343ZM7.33431 6.66654V13.3301H8.66764V6.66654H7.33431ZM2.66764 6.66654V7.99988H6.00098V6.66654H2.66764ZM4.00098 9.33321V13.3301H6.00098V9.33321H4.00098ZM9.61757 5.08907C10.5229 4.78448 10.9968 4.34074 10.9968 3.7295C10.9968 3.06773 10.5228 2.68537 9.88565 2.74346C9.18081 2.80773 8.66726 3.38271 8.67858 4.38076C8.67418 4.75489 8.66764 5.32723 8.66764 5.32723C8.66764 5.32723 9.26046 5.20922 9.61757 5.08907Z" fill="#A2A2A2"/>
</svg>
