<svg width="24" height="24" viewBox="0 0 24 24" fill="none" xmlns="http://www.w3.org/2000/svg">
<path fill-rule="evenodd" clip-rule="evenodd" d="M6.99525 2H17.0047C19.7635 2 22 4.23604 22 6.99525V17.0047C22 19.7635 19.764 22 17.0047 22H6.99525C4.23645 22 2 19.764 2 17.0047V6.99525C2 4.23645 4.23604 2 6.99525 2ZM4 17.0047C4 18.6592 5.34085 20 6.99525 20H17.0047C18.6592 20 20 18.6591 20 17.0047V6.99525C20 5.34078 18.6591 4 17.0047 4H6.99525C5.34078 4 4 5.34085 4 6.99525V17.0047ZM7 12C7 9.23858 9.23858 7 12 7C14.7614 7 17 9.23858 17 12C17 14.7614 14.7614 17 12 17C9.23858 17 7 14.7614 7 12ZM15 12C15 10.3431 13.6569 9 12 9C10.3431 9 9 10.3431 9 12C9 13.6569 10.3431 15 12 15C13.6569 15 15 13.6569 15 12ZM17 8C16.4477 8 16 7.55228 16 7C16 6.44772 16.4477 6 17 6C17.5523 6 18 6.44772 18 7C18 7.55228 17.5523 8 17 8Z" fill="white"/>
</svg>
