<svg width="16" height="16" viewBox="0 0 16 16" fill="none" xmlns="http://www.w3.org/2000/svg">
<path fill-rule="evenodd" clip-rule="evenodd" d="M10.6667 13.3332V11.9999H5.33333V13.3332H7.33333C7.33333 12.9647 7.62924 12.6665 8 12.6665C8.36819 12.6665 8.66667 12.966 8.66667 13.3325L10.6667 13.3332ZM10.6667 5.33321H5.33333V10.6665H10.6667V5.33321ZM10.6667 3.99988V2.66654H5.33333V3.99988H10.6667ZM4.66832 1.33325H11.3317C11.7008 1.33325 12 1.63043 12 1.99902V14.0008C12 14.3685 11.701 14.6666 11.3317 14.6666H4.66832C4.29922 14.6666 4 14.3694 4 14.0008V1.99902C4 1.63132 4.29901 1.33325 4.66832 1.33325Z" fill="#A2A2A2"/>
</svg>
