<svg width="229" height="336" viewBox="0 0 229 336" fill="none" xmlns="http://www.w3.org/2000/svg">
<g filter="url(#filter0_d)">
<path d="M111.518 0.136475L45.9434 98.9626L59.8054 95.5174L111.518 0.136475Z" fill="url(#paint0_linear)"/>
<path d="M0.23828 118.255L76.1352 107.329L67.582 102.211L0.23828 118.255Z" fill="url(#paint1_linear)"/>
<path d="M71.2587 92.6709L78.7304 97.9862L75.8793 107.337L67.3262 102.219L71.2587 92.6709Z" fill="url(#paint2_linear)"/>
<path d="M86.3598 105.853L90.3906 105.263L95.1096 95.813L76.9219 100.046L86.3598 105.853Z" fill="url(#paint3_linear)"/>
<path d="M163.142 86.56L148.985 73.5669L8.30078 270.136L163.142 86.56Z" fill="url(#paint4_linear)"/>
<path d="M148.984 73.567L8.29987 270.136L95.2077 95.8127L77.02 100.045L79.9693 90.5958L148.984 73.567ZM67.582 102.211L71.5145 92.6629L46.0517 98.9626L111.724 0.136475L57.4559 18.9371L0.23828 118.255L67.582 102.211Z" fill="url(#paint5_linear)"/>
</g>
<defs>
<filter id="filter0_d" x="0.238281" y="0.136475" width="227.904" height="335" filterUnits="userSpaceOnUse" color-interpolation-filters="sRGB">
<feFlood flood-opacity="0" result="BackgroundImageFix"/>
<feColorMatrix in="SourceAlpha" type="matrix" values="0 0 0 0 0 0 0 0 0 0 0 0 0 0 0 0 0 0 127 0"/>
<feOffset dx="35" dy="35"/>
<feGaussianBlur stdDeviation="15"/>
<feColorMatrix type="matrix" values="0 0 0 0 0.295833 0 0 0 0 0.213 0 0 0 0 0 0 0 0 0.3 0"/>
<feBlend mode="normal" in2="BackgroundImageFix" result="effect1_dropShadow"/>
<feBlend mode="normal" in="SourceGraphic" in2="effect1_dropShadow" result="shape"/>
</filter>
<linearGradient id="paint0_linear" x1="91.435" y1="61.6632" x2="73.8702" y2="45.0025" gradientUnits="userSpaceOnUse">
<stop offset="0.1071" stop-color="#F0A120"/>
<stop offset="0.9949" stop-color="#9D5B48"/>
</linearGradient>
<linearGradient id="paint1_linear" x1="55.011" y1="128.739" x2="25.3082" y2="100.565" gradientUnits="userSpaceOnUse">
<stop offset="0.1071" stop-color="#F0A120"/>
<stop offset="0.9949" stop-color="#9D5B48"/>
</linearGradient>
<linearGradient id="paint2_linear" x1="80.0269" y1="106.148" x2="66.3131" y2="95.8072" gradientUnits="userSpaceOnUse">
<stop offset="0.1071" stop-color="#F0A120"/>
<stop offset="0.9949" stop-color="#9D5B48"/>
</linearGradient>
<linearGradient id="paint3_linear" x1="99.3562" y1="103.268" x2="76.0848" y2="96.7206" gradientUnits="userSpaceOnUse">
<stop offset="0.1071" stop-color="#F0A120"/>
<stop offset="0.9949" stop-color="#9D5B48"/>
</linearGradient>
<linearGradient id="paint4_linear" x1="90.4806" y1="182.836" x2="69.7819" y2="163.203" gradientUnits="userSpaceOnUse">
<stop offset="0.1071" stop-color="#F0A120"/>
<stop offset="0.9949" stop-color="#9D5B48"/>
</linearGradient>
<linearGradient id="paint5_linear" x1="-23.3058" y1="179.628" x2="171.978" y2="57.7861" gradientUnits="userSpaceOnUse">
<stop offset="0.0969188" stop-color="#FFCE00"/>
<stop offset="1" stop-color="#FFDE69"/>
</linearGradient>
</defs>
</svg>
