<svg width="24" height="24" viewBox="0 0 24 24" fill="none" xmlns="http://www.w3.org/2000/svg">
<path fill-rule="evenodd" clip-rule="evenodd" d="M6.99414 17.1637C7.19173 17.3789 7.52775 17.6897 7.8683 17.9159C8.88004 18.5881 10.2323 18.9983 11.9936 18.9983C13.7547 18.9983 15.1053 18.5883 16.1144 17.9164C16.454 17.6904 16.8582 17.3657 16.9856 17.1649V12.9722L13.3203 14.7178C12.5512 15.0841 11.4284 15.0838 10.6617 14.7172L6.99414 12.9635V17.1637ZM4.99587 12.008L0.591869 9.90221C-0.166599 9.53954 -0.16588 8.45867 0.593071 8.09701L10.6582 3.30071C11.4271 2.93431 12.5509 2.93324 13.3191 3.29783L23.4291 8.09634C24.1899 8.45745 24.1906 9.54076 23.4303 9.90287L22.9805 10.1171V14.8818C23.2871 15.1565 23.4801 15.5556 23.4801 15.9999C23.4801 16.8283 22.8091 17.4999 21.9814 17.4999C21.1536 17.4999 20.4826 16.8283 20.4826 15.9999C20.4826 15.5556 20.6756 15.1565 20.9822 14.8818V11.0688L18.9839 12.0205V17.4837C18.987 17.666 18.9404 17.8513 18.8389 18.0187C18.7598 18.1493 18.6219 18.337 18.4187 18.5616C18.0997 18.914 17.7026 19.2613 17.2212 19.5817C15.8847 20.4714 14.1493 20.9983 11.9936 20.9983C9.83827 20.9983 8.10174 20.4716 6.76316 19.5822C6.2811 19.262 5.88315 18.915 5.56339 18.5628C5.35965 18.3384 5.22143 18.1509 5.14199 18.0206C5.03976 17.8528 4.99277 17.6668 4.99587 17.4839V12.008ZM11.5172 5.10647L3.33847 8.99899L11.5231 12.9126C11.7457 13.019 12.2365 13.0191 12.4616 12.9119L20.6672 9.00393L12.4628 5.10491C12.2377 4.99804 11.7438 4.99852 11.5172 5.10647Z" fill="#1C1C1C"/>
</svg>
