<svg width="328" height="328" viewBox="0 0 328 328" fill="none" xmlns="http://www.w3.org/2000/svg">
<path d="M35.0263 127.046L29.9509 125.699C30.0635 125.951 30.1514 126.254 30.193 126.563C30.2459 126.839 30.2741 127.166 30.2642 127.56C30.2544 127.955 30.1847 128.374 30.0616 128.862C29.725 130.104 29.1024 130.974 28.1919 131.458C27.2813 131.943 26.1075 131.991 24.6703 131.602L21.7805 130.826L22.3429 128.689L25.3296 129.483C26.21 129.711 26.9181 129.71 27.4208 129.469C27.9234 129.229 28.2826 128.74 28.4694 128.022C28.5966 127.564 28.6529 127.163 28.636 126.804C28.6212 126.46 28.5796 126.15 28.502 125.925C28.4182 125.653 28.2922 125.418 28.1395 125.218L23.5858 124.005L24.1502 121.884L35.5753 124.926L35.0263 127.046Z" fill="black"/>
<path d="M27.7804 116.581L26.6873 119.686L25.051 119.104L27.9976 110.824L29.6338 111.406L28.5407 114.511L38.044 117.891L37.3012 119.974L27.7804 116.581Z" fill="black"/>
<path d="M42.0004 108.578C41.6231 109.4 41.1498 110.093 40.5763 110.627C39.9895 111.178 39.351 111.578 38.6432 111.815C37.9375 112.068 37.1955 112.167 36.4039 112.132C35.6124 112.097 34.8464 111.901 34.0596 111.551L33.9431 111.503C33.1563 111.153 32.4962 110.691 31.9472 110.119C31.3983 109.548 30.9822 108.912 30.7145 108.208C30.4467 107.504 30.3294 106.749 30.3491 105.96C30.3689 105.17 30.5762 104.371 30.9401 103.567C31.304 102.763 31.764 102.087 32.3374 101.554C32.9109 101.02 33.5494 100.62 34.2376 100.354C34.9279 100.104 35.6832 99.9865 36.4593 100.024C37.2354 100.061 38.0323 100.253 38.8212 100.619L38.9377 100.666C39.7245 101.017 40.3846 101.479 40.9469 102.032C41.5093 102.586 41.9253 103.223 42.1931 103.926C42.4763 104.628 42.5915 105.368 42.5739 106.172C42.5541 106.962 42.3623 107.759 42.0004 108.578ZM40.401 107.802C40.6303 107.284 40.7534 106.795 40.7487 106.292C40.7461 105.805 40.6353 105.332 40.4338 104.887C40.2169 104.444 39.9114 104.044 39.4997 103.675C39.0881 103.305 38.6033 102.977 38.0186 102.725L37.9021 102.678C37.3484 102.422 36.8092 102.274 36.2649 102.206C35.7207 102.137 35.2219 102.173 34.751 102.299C34.2802 102.425 33.8548 102.656 33.4594 102.992C33.0794 103.326 32.7584 103.747 32.5291 104.266C32.2865 104.802 32.1654 105.306 32.1701 105.809C32.1727 106.297 32.2681 106.772 32.485 107.215C32.702 107.657 33.0096 108.072 33.4037 108.429C33.8153 108.798 34.298 109.111 34.8847 109.378L35.0013 109.425C35.588 109.693 36.1602 109.852 36.7178 109.903C37.2734 109.938 37.7876 109.9 38.2543 109.743C38.7386 109.599 39.1619 109.354 39.5264 109.021C39.8775 108.707 40.1697 108.305 40.401 107.802Z" fill="black"/>
<path d="M40.1347 90.025L38.4198 92.8363L36.9295 91.9352L41.4888 84.4139L42.9791 85.315L41.2642 88.1264L49.8832 93.356L48.7382 95.2567L40.1347 90.025Z" fill="black"/>
<path d="M44.1805 80.558L45.8475 78.2094L57.7484 81.8647L56.4251 83.7265L53.4991 82.7982L50.8947 86.4845L52.7495 88.9259L51.56 90.6122L44.1805 80.558ZM49.8646 85.1438L51.8907 82.3063L46.4129 80.541L49.8646 85.1438Z" fill="black"/>
<path d="M49.9979 72.6789L51.4255 71.0078L55.5108 74.471L54.3435 67.5468L55.8781 65.7353L57.0284 73.1182L65.0634 73.1863L63.3795 75.1752L56.2226 75.0834L60.4461 78.6382L59.0206 80.3249L49.9979 72.6789Z" fill="black"/>
<path d="M69.4698 68.9741C68.8315 69.6107 68.1394 70.0814 67.409 70.3842C66.6787 70.687 65.9275 70.8353 65.1864 70.8248C64.4454 70.8143 63.699 70.6472 62.9782 70.3192C62.2595 70.0067 61.5994 69.5448 60.9999 68.9487L60.9081 68.8509C60.3065 68.2395 59.8399 67.5783 59.5216 66.8501C59.2034 66.1218 59.0572 65.3861 59.0502 64.6318C59.0432 63.8774 59.1949 63.1331 59.5053 62.399C59.8157 61.6648 60.2756 60.9893 60.9006 60.3702C61.5255 59.7511 62.2021 59.2825 62.917 58.9818C63.6474 58.679 64.3831 58.5328 65.1221 58.5278C65.861 58.5229 66.5919 58.6921 67.3261 59.0025C68.0603 59.3129 68.7204 59.7749 69.322 60.3864L69.4138 60.4842C70.0154 61.0956 70.482 61.7567 70.8002 62.485C71.1185 63.2133 71.2955 63.9448 71.3026 64.6992C71.3096 65.4536 71.1734 66.1957 70.863 66.9299C70.568 67.6619 70.0926 68.3396 69.4698 68.9741ZM68.245 67.7068C68.6475 67.3065 68.9201 66.8764 69.0959 66.4279C69.2716 65.9794 69.3329 65.4991 69.2973 65.0003C69.2617 64.5016 69.1024 64.0194 68.8638 63.5322C68.6252 63.045 68.2629 62.5745 67.8078 62.1164L67.716 62.0186C67.2806 61.5893 66.8247 61.2415 66.3503 60.9906C65.8604 60.7417 65.3831 60.5856 64.8893 60.5419C64.3956 60.4981 63.9164 60.5626 63.4518 60.7352C62.9717 60.9099 62.5371 61.1887 62.1212 61.6066C61.7053 62.0244 61.4172 62.4566 61.2435 62.9205C61.0699 63.3845 60.9931 63.8669 61.0421 64.3481C61.0777 64.8469 61.2215 65.3311 61.4756 65.8162C61.7297 66.3013 62.0765 66.774 62.5295 67.2166L62.6213 67.3144C63.0764 67.7725 63.5653 68.1316 64.0685 68.3629C64.5717 68.5943 65.0625 68.7328 65.5696 68.759C66.0612 68.7873 66.5559 68.7208 67.0029 68.5348C67.4367 68.3663 67.8537 68.0742 68.245 67.7068Z" fill="black"/>
<path d="M67.77 54.1123L73.4425 49.3682L74.5499 50.6984L70.5588 54.0204L72.6405 56.51L75.8386 53.8454L76.8913 55.1201L73.6932 57.7847L75.9058 60.4298L80.1079 56.922L81.2153 58.2522L75.3297 63.1666L67.77 54.1123Z" fill="black"/>
<path d="M79.8673 44.6014L81.686 43.3812L87.3125 51.7514L91.4978 48.9382L92.4631 50.382L86.459 54.4154L79.8673 44.6014Z" fill="black"/>
<path d="M88.474 38.9748L94.8898 35.311L95.7531 36.8157L91.2521 39.388L92.8589 42.209L96.4845 40.1478L97.3065 41.5793L93.6809 43.6405L95.39 46.6366L100.139 43.9207L101.003 45.4254L94.3386 49.2328L88.474 38.9748Z" fill="black"/>
<path d="M97.0878 34.1025L99.1758 33.1293L106.023 40.517L104.758 30.5217L106.622 29.6415L108.007 42.0441L105.713 43.1237L97.0878 34.1025Z" fill="black"/>
<path d="M109.373 28.5635L116.296 25.9801L116.909 27.6129L112.039 29.4323L113.172 32.4743L117.069 31.0219L117.638 32.5661L113.742 34.0185L114.948 37.2553L120.073 35.3387L120.686 36.9715L113.493 39.6541L109.373 28.5635Z" fill="black"/>
<path d="M119.525 24.9481L121.63 24.3346L124.458 34.0096L129.304 32.6025L129.796 34.2673L122.846 36.3035L119.525 24.9481Z" fill="black"/>
<path d="M141.39 32.0154C140.497 32.1669 139.662 32.1534 138.882 31.975C138.103 31.7966 137.415 31.4799 136.821 31.0406C136.227 30.6012 135.726 30.039 135.319 29.3542C134.912 28.6693 134.639 27.9193 134.495 27.0888L134.479 26.9652C134.333 26.1192 134.349 25.2989 134.512 24.5216C134.675 23.7444 134.974 23.0432 135.411 22.4336C135.849 21.8241 136.391 21.2948 137.076 20.8879C137.726 20.4543 138.507 20.1762 139.369 20.0289C140.23 19.8815 141.05 19.8971 141.83 20.0755C142.594 20.256 143.279 20.5572 143.889 20.9945C144.499 21.4318 144.997 21.9785 145.402 22.6479C145.807 23.3173 146.083 24.0828 146.23 24.9442L146.247 25.0678C146.392 25.9138 146.376 26.7341 146.227 27.4938C146.064 28.2711 145.78 28.9702 145.358 29.5777C144.936 30.1852 144.378 30.7165 143.711 31.1368C143.032 31.59 142.267 31.866 141.39 32.0154ZM141.124 30.273C141.678 30.1827 142.156 29.9925 142.56 29.7179C142.964 29.4433 143.295 29.0998 143.537 28.6739C143.779 28.2479 143.95 27.7685 144.034 27.2222C144.118 26.6759 144.103 26.0957 144 25.4486L143.984 25.325C143.887 24.7242 143.704 24.1823 143.465 23.6952C143.211 23.21 142.906 22.8105 142.533 22.4987C142.161 22.1868 141.735 21.9451 141.246 21.822C140.756 21.6834 140.233 21.6593 139.665 21.7671C139.08 21.8616 138.586 22.0538 138.183 22.3284C137.764 22.6051 137.432 22.9487 137.19 23.3746C136.933 23.8026 136.777 24.2799 136.693 24.8262C136.609 25.3725 136.624 25.9528 136.741 26.5823L136.757 26.706C136.86 27.3531 137.061 27.9083 137.33 28.3914C137.6 28.8744 137.936 29.2698 138.324 29.5795C138.712 29.8893 139.151 30.1134 139.624 30.2386C140.078 30.335 140.585 30.3612 141.124 30.273Z" fill="black"/>
<path d="M148.731 18.8488L151.35 18.6696L156.903 26.8451L156.307 18.3176L158.303 18.1752L159.117 29.9621L156.841 30.1265L150.924 21.465L151.542 30.5088L149.547 30.6512L148.731 18.8488Z" fill="black"/>
<path d="M162.231 18.1342L169.626 18.2411L169.608 19.9746L164.42 19.9012L164.367 23.1342L168.529 23.1882L168.5 24.8444L164.338 24.7904L164.283 28.244L169.755 28.3263L169.736 30.0598L162.059 29.9593L162.231 18.1342Z" fill="black"/>
<path d="M173.904 26.1788C173.922 25.8459 174.009 25.551 174.132 25.2984C174.255 25.0458 174.396 24.8065 174.588 24.5919C174.764 24.3794 174.973 24.1782 175.184 23.9925C175.395 23.8067 175.606 23.621 175.834 23.4486C176.159 23.1689 176.468 22.8914 176.715 22.6221C176.962 22.3528 177.108 22.0342 177.139 21.6838C177.178 21.2694 177.084 20.9202 176.874 20.6494C176.665 20.3786 176.298 20.2234 175.789 20.1817C175.279 20.14 174.839 20.2621 174.473 20.5789C174.122 20.8937 173.88 21.3196 173.783 21.8834L171.872 21.7156C171.958 21.1847 172.114 20.7074 172.34 20.2835C172.568 19.8752 172.867 19.5203 173.24 19.2499C173.597 18.9815 174.027 18.7821 174.497 18.6558C174.968 18.5296 175.483 18.4919 176.04 18.5428C176.629 18.5895 177.133 18.7105 177.566 18.8883C177.984 19.0682 178.33 19.3048 178.59 19.6003C178.85 19.8958 179.035 20.2171 179.147 20.5798C179.259 20.9424 179.293 21.3155 179.252 21.7143C179.23 22.0163 179.155 22.2782 179.06 22.5112C178.966 22.7442 178.838 22.9659 178.676 23.1609C178.531 23.3693 178.35 23.5509 178.17 23.7324C177.975 23.9161 177.777 24.0843 177.577 24.2371C177.364 24.4074 177.151 24.5777 176.953 24.7459C176.755 24.9141 176.573 25.0802 176.409 25.2597C176.244 25.4392 176.11 25.6146 175.996 25.8188C175.88 26.0075 175.798 26.223 175.768 26.4632L175.728 26.9878L173.881 26.8271L173.904 26.1788ZM174.442 30.5283C174.076 30.4988 173.757 30.3528 173.515 30.0707C173.272 29.7886 173.169 29.4878 173.2 29.1374C173.23 28.7715 173.395 28.4817 173.68 28.2547C173.964 28.0276 174.298 27.9355 174.664 27.965C175.03 27.9944 175.317 28.1446 175.558 28.4112C175.798 28.6779 175.904 28.9941 175.874 29.36C175.843 29.7105 175.692 29.9982 175.408 30.2252C175.126 30.4677 174.808 30.5578 174.442 30.5283Z" fill="black"/>
<path d="M199.956 35.0126L201.304 29.9375C201.052 30.0501 200.749 30.138 200.44 30.1796C200.163 30.2325 199.837 30.2607 199.442 30.2508C199.047 30.241 198.629 30.1714 198.14 30.0483C196.899 29.7117 196.028 29.0892 195.546 28.1941C195.061 27.2836 195.014 26.1098 195.403 24.6728L196.179 21.7831L198.316 22.3454L197.521 25.332C197.278 26.2144 197.292 26.9049 197.535 27.423C197.778 27.9411 198.265 28.2848 198.982 28.4715C199.44 28.5988 199.841 28.655 200.201 28.6381C200.56 28.6212 200.854 28.5817 201.08 28.5042C201.352 28.4204 201.587 28.2944 201.786 28.1416L202.999 23.5881L205.121 24.1525L202.078 35.577L199.956 35.0126Z" fill="black"/>
<path d="M210.454 27.7625L207.348 26.6695L207.931 25.0333L216.211 27.9796L215.629 29.6158L212.523 28.5228L209.143 38.0256L207.06 37.2829L210.454 27.7625Z" fill="black"/>
<path d="M218.489 41.9934C217.667 41.6161 216.974 41.1428 216.441 40.5694C215.89 39.9826 215.489 39.344 215.252 38.6363C215 37.9306 214.9 37.1887 214.935 36.3972C214.971 35.6057 215.167 34.8397 215.517 34.053L215.564 33.9365C215.915 33.1497 216.377 32.4896 216.948 31.9407C217.52 31.3918 218.156 30.9757 218.86 30.708C219.563 30.4402 220.319 30.3229 221.108 30.3426C221.898 30.3623 222.697 30.5696 223.501 30.9335C224.305 31.2974 224.981 31.7573 225.514 32.3308C226.048 32.9042 226.449 33.5427 226.714 34.2308C226.967 34.9365 227.082 35.6763 227.044 36.4524C227.007 37.2285 226.815 38.0253 226.449 38.8142L226.402 38.9307C226.052 39.7174 225.59 40.3775 225.036 40.9398C224.482 41.5021 223.845 41.9182 223.142 42.1859C222.44 42.4691 221.7 42.5843 220.895 42.5667C220.108 42.5625 219.311 42.3706 218.489 41.9934ZM219.25 40.3961C219.769 40.6253 220.257 40.7484 220.76 40.7437C221.248 40.7411 221.721 40.6303 222.166 40.4288C222.609 40.2119 223.008 39.9064 223.378 39.4948C223.747 39.0831 224.076 38.5984 224.327 38.0138L224.375 37.8972C224.631 37.3435 224.778 36.8044 224.847 36.2601C224.915 35.7159 224.88 35.2171 224.753 34.7463C224.627 34.2755 224.397 33.8501 224.06 33.4547C223.726 33.0748 223.305 32.7538 222.787 32.5245C222.25 32.2819 221.746 32.1609 221.243 32.1656C220.756 32.1682 220.281 32.2636 219.838 32.4805C219.395 32.6974 218.98 33.005 218.624 33.3991C218.254 33.8107 217.941 34.2934 217.674 34.8801L217.627 34.9966C217.36 35.5833 217.2 36.1555 217.15 36.7131C217.114 37.2686 217.152 37.7829 217.309 38.2495C217.453 38.7338 217.699 39.157 218.031 39.5215C218.346 39.8726 218.764 40.1782 219.25 40.3961Z" fill="black"/>
<path d="M236.993 40.1025L234.184 38.4032L235.085 36.913L242.607 41.4719L241.706 42.9622L238.896 41.2629L233.666 49.8815L231.765 48.7366L236.993 40.1025Z" fill="black"/>
<path d="M246.511 44.1725L248.859 45.8394L245.204 57.7397L243.342 56.4165L244.27 53.4906L240.584 50.8864L238.142 52.7412L236.456 51.5517L246.511 44.1725ZM241.927 49.8718L244.764 51.8978L246.53 46.4202L241.927 49.8718Z" fill="black"/>
<path d="M254.34 49.9649L256.027 51.3904L252.563 55.4755L259.488 54.3081L261.299 55.8427L253.916 56.993L253.848 65.0276L251.861 63.3592L251.953 56.2027L248.38 60.4127L246.709 58.9851L254.34 49.9649Z" fill="black"/>
<path d="M258.079 69.4625C257.443 68.8242 256.972 68.1322 256.669 67.4019C256.366 66.6715 256.218 65.9204 256.229 65.1794C256.239 64.4384 256.406 63.692 256.734 62.9713C257.062 62.2505 257.509 61.5925 258.105 60.993L258.203 60.9012C258.814 60.2997 259.475 59.8331 260.204 59.5148C260.932 59.1966 261.668 59.0504 262.422 59.0434C263.177 59.0363 263.921 59.188 264.655 59.4984C265.389 59.8088 266.065 60.2687 266.684 60.8936C267.303 61.5184 267.772 62.195 268.074 62.9253C268.377 63.6557 268.523 64.3913 268.513 65.1324C268.502 65.8734 268.349 66.6022 268.038 67.3363C267.728 68.0704 267.266 68.7305 266.654 69.3321L266.556 69.4239C265.945 70.0254 265.284 70.492 264.555 70.8103C263.827 71.1285 263.096 71.3056 262.341 71.3126C261.587 71.3197 260.844 71.1835 260.11 70.8731C259.392 70.5606 258.716 70.1007 258.079 69.4625ZM259.362 68.2356C259.763 68.6381 260.193 68.9107 260.641 69.0864C261.105 69.2601 261.57 69.3234 262.067 69.2724C262.563 69.2213 263.048 69.0775 263.535 68.8389C264.022 68.6003 264.493 68.238 264.951 67.783L265.049 67.6911C265.478 67.2557 265.81 66.8019 266.077 66.3255C266.326 65.8356 266.482 65.3583 266.526 64.8646C266.569 64.3709 266.505 63.8918 266.332 63.4271C266.157 62.9471 265.879 62.5125 265.478 62.11C265.06 61.6941 264.628 61.406 264.164 61.2324C263.7 61.0588 263.218 60.982 262.737 61.031C262.238 61.0666 261.754 61.2104 261.268 61.4645C260.783 61.7186 260.311 62.0654 259.868 62.5183L259.77 62.6102C259.312 63.0652 258.953 63.5541 258.722 64.0573C258.49 64.5605 258.352 65.0512 258.325 65.5583C258.299 66.0654 258.364 66.5445 258.55 66.9916C258.705 67.4428 258.981 67.8619 259.362 68.2356Z" fill="black"/>
<path d="M272.923 67.7335L277.667 73.4057L276.337 74.513L272.999 70.5243L270.509 72.6058L273.174 75.8038L271.901 76.8719L269.237 73.674L266.591 75.8866L270.099 80.0884L268.769 81.1957L263.854 75.3105L272.923 67.7335Z" fill="black"/>
<path d="M282.471 79.8727L283.691 81.6913L275.321 87.3176L278.134 91.5027L276.69 92.468L272.654 86.4488L282.471 79.8727Z" fill="black"/>
<path d="M288.074 88.4186L291.738 94.834L290.233 95.6973L287.661 91.1966L284.84 92.8034L286.901 96.4287L285.469 97.2507L283.408 93.6254L280.412 95.3344L283.128 100.083L281.623 100.947L277.815 94.2831L288.074 88.4186Z" fill="black"/>
<path d="M292.931 97.0342L293.904 99.1221L286.531 105.967L296.527 104.702L297.407 106.566L285.004 107.951L283.922 105.642L292.931 97.0342Z" fill="black"/>
<path d="M298.47 109.318L301.053 116.241L299.436 116.852L297.617 111.982L294.574 113.115L296.029 117.027L294.485 117.596L293.032 113.7L289.795 114.907L291.712 120.031L290.094 120.642L287.412 113.449L298.47 109.318Z" fill="black"/>
<path d="M302.099 119.452L302.713 121.557L293.037 124.385L294.46 129.229L292.795 129.72L290.758 122.771L302.099 119.452Z" fill="black"/>
<path d="M295.031 141.316C294.879 140.424 294.893 139.588 295.071 138.809C295.25 138.029 295.566 137.342 296.006 136.747C296.461 136.151 297.021 135.635 297.692 135.246C298.362 134.841 299.127 134.565 299.958 134.422L300.081 134.405C300.927 134.26 301.748 134.276 302.51 134.441C303.271 134.606 303.988 134.903 304.598 135.34C305.207 135.777 305.721 136.322 306.144 137.005C306.564 137.672 306.842 138.453 306.989 139.314C307.136 140.176 307.121 140.996 306.942 141.776C306.762 142.539 306.461 143.225 306.039 143.833C305.602 144.442 305.055 144.941 304.385 145.345C303.716 145.75 302.95 146.026 302.089 146.174L301.965 146.19C301.119 146.335 300.299 146.32 299.539 146.17C298.762 146.007 298.063 145.724 297.455 145.302C296.848 144.88 296.316 144.322 295.881 143.657C295.445 142.991 295.182 142.208 295.031 141.316ZM296.791 141.064C296.881 141.618 297.071 142.096 297.346 142.5C297.621 142.903 297.964 143.235 298.39 143.477C298.816 143.718 299.295 143.89 299.842 143.974C300.388 144.058 300.968 144.042 301.615 143.94L301.739 143.923C302.34 143.827 302.882 143.644 303.369 143.405C303.856 143.166 304.254 142.845 304.566 142.473C304.877 142.101 305.119 141.675 305.242 141.186C305.381 140.695 305.405 140.173 305.297 139.605C305.205 139.035 305.013 138.542 304.736 138.123C304.459 137.703 304.116 137.372 303.69 137.13C303.262 136.873 302.784 136.717 302.238 136.633C301.692 136.549 301.111 136.564 300.482 136.681L300.358 136.697C299.711 136.8 299.156 137 298.673 137.27C298.19 137.54 297.794 137.876 297.484 138.264C297.175 138.652 296.95 139.091 296.825 139.564C296.713 140.02 296.703 140.525 296.791 141.064Z" fill="black"/>
<path d="M308.198 148.657L308.378 151.276L300.202 156.829L308.729 156.233L308.872 158.228L297.086 159.058L296.922 156.782L305.58 150.834L296.538 151.468L296.395 149.473L308.198 148.657Z" fill="black"/>
<path d="M308.936 162.216L308.829 169.611L307.096 169.592L307.169 164.405L303.92 164.354L303.866 168.516L302.21 168.487L302.264 164.325L298.81 164.27L298.728 169.742L296.994 169.723L297.095 162.046L308.936 162.216Z" fill="black"/>
<path d="M296.525 174.428C296.555 174.062 296.701 173.744 296.983 173.501C297.265 173.259 297.566 173.155 297.917 173.187C298.282 173.216 298.572 173.382 298.799 173.666C299.026 173.95 299.118 174.284 299.089 174.65C299.06 175.016 298.911 175.319 298.643 175.544C298.376 175.784 298.06 175.89 297.694 175.86C297.343 175.829 297.056 175.679 296.829 175.395C296.602 175.11 296.496 174.794 296.525 174.428ZM300.891 173.888C301.226 173.922 301.518 173.993 301.771 174.116C302.024 174.24 302.263 174.38 302.478 174.572C302.69 174.748 302.889 174.941 303.077 175.168C303.263 175.379 303.449 175.59 303.621 175.819C303.903 176.158 304.178 176.452 304.448 176.699C304.717 176.946 305.035 177.092 305.386 177.123C305.8 177.162 306.15 177.068 306.42 176.858C306.691 176.649 306.846 176.282 306.888 175.773C306.93 175.263 306.808 174.824 306.491 174.457C306.176 174.106 305.75 173.864 305.186 173.767L305.354 171.856C305.885 171.942 306.362 172.098 306.786 172.324C307.21 172.551 307.55 172.851 307.82 173.224C308.088 173.581 308.288 174.011 308.414 174.482C308.54 174.952 308.578 175.467 308.527 176.024C308.48 176.613 308.359 177.117 308.181 177.55C308.002 177.968 307.765 178.314 307.469 178.574C307.174 178.834 306.853 179.019 306.49 179.131C306.127 179.242 305.754 179.277 305.355 179.236C305.053 179.214 304.794 179.154 304.558 179.044C304.325 178.95 304.104 178.822 303.909 178.66C303.7 178.515 303.519 178.334 303.337 178.154C303.153 177.959 302.985 177.761 302.832 177.561C302.662 177.348 302.492 177.135 302.324 176.937C302.155 176.74 301.989 176.557 301.81 176.393C301.63 176.228 301.455 176.094 301.251 175.98C301.062 175.864 300.846 175.783 300.608 175.767L300.084 175.728L300.244 173.881L300.891 173.888Z" fill="black"/>
<path d="M292.068 199.907L297.143 201.254C297.031 201.002 296.943 200.699 296.901 200.39C296.848 200.113 296.82 199.787 296.83 199.392C296.84 198.997 296.909 198.579 297.033 198.09C297.369 196.849 297.976 195.981 298.887 195.496C299.797 195.012 300.971 194.964 302.408 195.353L305.296 196.113L304.734 198.25L301.747 197.456C300.867 197.228 300.159 197.229 299.656 197.47C299.138 197.713 298.794 198.2 298.607 198.917C298.48 199.375 298.424 199.776 298.441 200.135C298.458 200.495 298.497 200.789 298.575 201.014C298.658 201.286 298.784 201.521 298.937 201.721L303.491 202.934L302.926 205.055L291.503 202.028L292.068 199.907Z" fill="black"/>
<path d="M299.318 210.403L300.411 207.298L302.047 207.88L299.103 216.176L297.467 215.593L298.56 212.488L289.059 209.124L289.801 207.041L299.318 210.403Z" fill="black"/>
<path d="M285.087 218.439C285.464 217.617 285.937 216.924 286.511 216.39C287.098 215.839 287.736 215.439 288.444 215.202C289.15 214.95 289.892 214.85 290.683 214.885C291.475 214.92 292.241 215.116 293.028 215.467L293.144 215.514C293.931 215.864 294.591 216.326 295.14 216.898C295.689 217.469 296.105 218.106 296.373 218.809C296.64 219.513 296.758 220.268 296.738 221.057C296.718 221.847 296.511 222.646 296.147 223.45C295.783 224.254 295.323 224.93 294.75 225.463C294.176 225.997 293.538 226.397 292.849 226.663C292.161 226.929 291.404 227.031 290.628 226.993C289.852 226.956 289.055 226.764 288.266 226.398L288.149 226.351C287.363 226.001 286.702 225.539 286.14 224.985C285.578 224.431 285.162 223.794 284.894 223.091C284.611 222.389 284.496 221.65 284.513 220.845C284.533 220.055 284.723 219.243 285.087 218.439ZM286.684 219.199C286.453 219.703 286.332 220.207 286.336 220.71C286.339 221.197 286.45 221.67 286.651 222.115C286.868 222.558 287.174 222.957 287.585 223.327C287.997 223.696 288.482 224.025 289.066 224.276L289.183 224.324C289.737 224.58 290.276 224.728 290.82 224.796C291.364 224.864 291.863 224.829 292.334 224.702C292.805 224.576 293.23 224.346 293.626 224.009C294.006 223.675 294.327 223.254 294.556 222.736C294.799 222.199 294.92 221.695 294.915 221.192C294.91 220.69 294.817 220.23 294.6 219.787C294.383 219.344 294.078 218.945 293.681 218.573C293.27 218.204 292.787 217.891 292.2 217.624L292.084 217.576C291.497 217.309 290.925 217.15 290.369 217.114C289.812 217.064 289.299 217.117 288.833 217.274C288.349 217.418 287.925 217.663 287.561 217.996C287.196 218.328 286.915 218.696 286.684 219.199Z" fill="black"/>
<path d="M286.975 236.926L288.674 234.117L290.165 235.018L285.605 242.539L284.115 241.638L285.815 238.829L277.196 233.599L278.341 231.699L286.975 236.926Z" fill="black"/>
<path d="M282.922 246.457L281.255 248.805L269.354 245.15L270.677 243.288L273.603 244.216L276.208 240.53L274.353 238.089L275.543 236.402L282.922 246.457ZM277.222 241.873L275.196 244.71L280.674 246.476L277.222 241.873Z" fill="black"/>
<path d="M277.129 254.286L275.704 255.972L271.619 252.509L272.801 259.431L271.282 261.241L270.132 253.858L262.097 253.79L263.765 251.803L270.922 251.895L266.712 248.322L268.138 246.636L277.129 254.286Z" fill="black"/>
<path d="M257.633 258.04C258.271 257.404 258.963 256.933 259.693 256.63C260.424 256.327 261.175 256.179 261.916 256.19C262.657 256.2 263.403 256.367 264.124 256.695C264.845 257.023 265.503 257.47 266.103 258.066L266.194 258.163C266.796 258.775 267.263 259.436 267.581 260.164C267.899 260.892 268.045 261.628 268.052 262.383C268.059 263.137 267.908 263.881 267.597 264.615C267.287 265.349 266.827 266.025 266.202 266.644C265.577 267.263 264.9 267.732 264.17 268.035C263.44 268.337 262.704 268.484 261.965 268.489C261.224 268.478 260.495 268.324 259.761 268.014C259.042 267.701 258.367 267.242 257.765 266.63L257.673 266.532C257.072 265.921 256.605 265.26 256.271 264.533C255.953 263.805 255.776 263.074 255.769 262.319C255.762 261.565 255.898 260.823 256.209 260.089C256.534 259.352 256.992 258.661 257.633 258.04ZM258.857 259.307C258.455 259.708 258.182 260.138 258.007 260.586C257.831 261.035 257.77 261.515 257.821 262.012C257.87 262.493 258.015 262.993 258.254 263.48C258.493 263.967 258.857 264.453 259.31 264.896L259.402 264.994C259.837 265.423 260.291 265.755 260.768 266.022C261.257 266.27 261.735 266.427 262.229 266.47C262.722 266.514 263.201 266.45 263.666 266.277C264.131 266.104 264.581 265.824 264.981 265.408C265.397 264.99 265.685 264.558 265.859 264.094C266.033 263.63 266.109 263.147 266.06 262.666C266.011 262.185 265.881 261.683 265.627 261.198C265.373 260.713 265.026 260.24 264.573 259.798L264.481 259.7C264.026 259.242 263.539 258.898 263.034 258.651C262.531 258.42 262.04 258.281 261.533 258.255C261.026 258.229 260.547 258.294 260.1 258.48C259.666 258.648 259.231 258.927 258.857 259.307Z" fill="black"/>
<path d="M259.375 272.865L253.702 277.61L252.595 276.279L256.568 272.944L254.487 270.454L251.289 273.119L250.22 271.846L253.417 269.166L251.204 266.521L247.002 270.029L245.894 268.699L251.778 263.769L259.375 272.865Z" fill="black"/>
<path d="M247.237 282.429L245.419 283.649L239.792 275.279L235.607 278.092L234.641 276.648L240.646 272.615L247.237 282.429Z" fill="black"/>
<path d="M238.673 288.018L232.257 291.682L231.394 290.177L235.895 287.605L234.288 284.784L230.662 286.845L229.84 285.414L233.45 283.355L231.741 280.359L226.992 283.074L226.129 281.57L232.793 277.762L238.673 288.018Z" fill="black"/>
<path d="M230.074 292.888L227.986 293.861L221.141 286.489L222.406 296.484L220.542 297.365L219.142 284.964L221.451 283.882L230.074 292.888Z" fill="black"/>
<path d="M217.791 298.443L210.868 301.026L210.257 299.409L215.127 297.589L213.994 294.547L210.098 296L209.528 294.456L213.425 293.003L212.218 289.766L207.094 291.683L206.483 290.066L213.676 287.383L217.791 298.443Z" fill="black"/>
<path d="M207.597 302.095L205.492 302.709L202.665 293.034L197.82 294.456L197.329 292.791L204.278 290.755L207.597 302.095Z" fill="black"/>
<path d="M185.732 295.028C186.625 294.877 187.461 294.89 188.24 295.069C189.019 295.247 189.707 295.564 190.301 296.003C190.898 296.458 191.398 297.02 191.803 297.69C192.208 298.359 192.484 299.125 192.627 299.955L192.643 300.079C192.789 300.925 192.773 301.745 192.608 302.507C192.443 303.269 192.146 303.985 191.709 304.595C191.271 305.204 190.727 305.718 190.044 306.14C189.361 306.563 188.595 306.839 187.734 306.986C186.873 307.133 186.052 307.118 185.273 306.939C184.509 306.759 183.823 306.458 183.216 306.036C182.606 305.599 182.108 305.052 181.703 304.383C181.298 303.713 181.022 302.948 180.875 302.086L180.858 301.963C180.713 301.117 180.728 300.296 180.878 299.537C181.041 298.759 181.325 298.06 181.747 297.453C182.168 296.845 182.726 296.314 183.392 295.878C184.075 295.456 184.856 295.178 185.732 295.028ZM185.998 296.771C185.444 296.861 184.966 297.051 184.562 297.326C184.158 297.601 183.827 297.944 183.585 298.37C183.344 298.796 183.172 299.275 183.088 299.822C183.004 300.368 183.019 300.948 183.122 301.595L183.139 301.719C183.235 302.32 183.418 302.861 183.657 303.349C183.911 303.834 184.216 304.233 184.589 304.545C184.961 304.857 185.387 305.099 185.876 305.222C186.367 305.36 186.889 305.385 187.457 305.277C188.027 305.184 188.52 304.992 188.939 304.715C189.359 304.439 189.69 304.095 189.932 303.669C190.173 303.243 190.345 302.764 190.429 302.218C190.513 301.671 190.498 301.091 190.382 300.462L190.365 300.338C190.262 299.691 190.062 299.136 189.792 298.652C189.523 298.169 189.186 297.774 188.798 297.464C188.41 297.155 187.971 296.93 187.498 296.805C187.025 296.68 186.522 296.685 185.998 296.771Z" fill="black"/>
<path d="M178.389 308.179L175.77 308.359L170.217 300.183L170.813 308.711L168.818 308.853L167.988 297.068L170.263 296.904L176.212 305.561L175.578 296.52L177.573 296.377L178.389 308.179Z" fill="black"/>
<path d="M164.893 308.925L157.498 308.818L157.517 307.084L162.704 307.158L162.742 303.927L158.58 303.873L158.609 302.217L162.771 302.271L162.825 298.817L157.356 298.75L157.374 297.017L165.052 297.117L164.893 308.925Z" fill="black"/>
<path d="M153.22 300.88C153.186 301.215 153.116 301.507 152.992 301.76C152.869 302.013 152.728 302.252 152.536 302.466C152.36 302.679 152.167 302.878 151.94 303.066C151.729 303.252 151.518 303.437 151.29 303.61C150.95 303.892 150.656 304.167 150.409 304.436C150.147 304.708 150.016 305.024 149.985 305.375C149.946 305.789 150.04 306.138 150.25 306.409C150.459 306.68 150.826 306.835 151.336 306.877C151.845 306.918 152.285 306.796 152.651 306.479C153.018 306.163 153.244 305.739 153.341 305.175L155.252 305.343C155.166 305.874 155.01 306.351 154.784 306.775C154.558 307.199 154.257 307.538 153.884 307.809C153.527 308.077 153.098 308.276 152.627 308.403C152.156 308.529 151.642 308.567 151.084 308.516C150.495 308.469 149.991 308.348 149.558 308.17C149.125 307.992 148.794 307.754 148.534 307.458C148.274 307.163 148.089 306.841 147.977 306.479C147.866 306.116 147.831 305.743 147.872 305.344C147.894 305.042 147.954 304.782 148.064 304.547C148.158 304.314 148.286 304.092 148.448 303.897C148.594 303.689 148.774 303.508 148.954 303.326C149.149 303.142 149.347 302.974 149.547 302.821C149.76 302.651 149.973 302.481 150.171 302.313C150.369 302.144 150.551 301.978 150.716 301.799C150.88 301.619 151.014 301.444 151.128 301.24C151.244 301.051 151.31 300.837 151.341 300.597L151.38 300.073L153.228 300.233L153.22 300.88ZM152.68 296.515C153.046 296.544 153.365 296.69 153.607 296.972C153.848 297.239 153.953 297.555 153.922 297.906C153.892 298.271 153.727 298.561 153.442 298.788C153.158 299.015 152.824 299.107 152.458 299.078C152.092 299.048 151.789 298.9 151.564 298.632C151.324 298.365 151.218 298.049 151.248 297.683C151.279 297.332 151.43 297.045 151.714 296.818C151.998 296.591 152.314 296.485 152.68 296.515Z" fill="black"/>
<path d="M127.152 292.049L125.805 297.124C126.057 297.011 126.36 296.924 126.669 296.882C126.945 296.829 127.272 296.801 127.667 296.811C128.062 296.821 128.48 296.89 128.969 297.013C130.21 297.35 131.079 297.957 131.563 298.867C132.047 299.778 132.095 300.952 131.706 302.389L130.946 305.276L128.808 304.714L129.603 301.728C129.831 300.847 129.83 300.139 129.589 299.636C129.346 299.118 128.859 298.775 128.142 298.588C127.684 298.461 127.283 298.404 126.924 298.421C126.564 298.438 126.27 298.478 126.045 298.555C125.773 298.639 125.538 298.765 125.338 298.918L124.125 303.471L122.003 302.907L125.031 291.485L127.152 292.049Z" fill="black"/>
<path d="M116.655 299.299L119.761 300.392L119.178 302.028L110.882 299.084L111.465 297.447L114.57 298.54L117.95 289.038L120.033 289.78L116.655 299.299Z" fill="black"/>
<path d="M108.67 285.092C109.492 285.47 110.185 285.943 110.734 286.514C111.285 287.101 111.686 287.74 111.922 288.447C112.175 289.153 112.275 289.895 112.239 290.687C112.204 291.478 112.008 292.244 111.658 293.031L111.61 293.147C111.26 293.934 110.798 294.594 110.226 295.143C109.655 295.692 109.019 296.108 108.315 296.376C107.611 296.644 106.871 296.759 106.066 296.741C105.277 296.721 104.478 296.514 103.674 296.15C102.869 295.786 102.194 295.326 101.66 294.753C101.127 294.18 100.726 293.541 100.461 292.853C100.208 292.147 100.093 291.407 100.115 290.633C100.152 289.857 100.344 289.06 100.71 288.272L100.757 288.155C101.108 287.368 101.57 286.708 102.124 286.146C102.677 285.584 103.314 285.168 104.018 284.9C104.719 284.617 105.459 284.501 106.264 284.519C107.053 284.539 107.85 284.731 108.67 285.092ZM107.909 286.69C107.391 286.461 106.886 286.339 106.399 286.342C105.911 286.345 105.439 286.456 104.996 286.672C104.553 286.889 104.153 287.195 103.784 287.607C103.414 288.018 103.103 288.516 102.834 289.088L102.787 289.204C102.531 289.758 102.383 290.297 102.314 290.841C102.246 291.385 102.282 291.884 102.423 292.353C102.55 292.824 102.78 293.249 103.116 293.644C103.453 294.04 103.872 294.345 104.39 294.575C104.926 294.817 105.431 294.938 105.934 294.934C106.436 294.929 106.896 294.836 107.339 294.619C107.782 294.402 108.181 294.096 108.553 293.7C108.923 293.288 109.235 292.806 109.503 292.219L109.55 292.103C109.817 291.516 109.976 290.944 110.012 290.388C110.063 289.831 110.01 289.318 109.852 288.852C109.709 288.368 109.463 287.944 109.131 287.58C108.814 287.213 108.397 286.923 107.909 286.69Z" fill="black"/>
<path d="M90.1175 286.974L92.9269 288.673L92.0258 290.164L84.5041 285.605L85.4053 284.114L88.2147 285.814L93.4448 277.195L95.3455 278.34L90.1175 286.974Z" fill="black"/>
<path d="M80.6506 282.928L78.302 281.262L81.9576 269.361L83.8194 270.685L82.891 273.61L86.5775 276.215L89.0191 274.36L90.7055 275.549L80.6506 282.928ZM85.2213 277.247L82.3703 275.238L80.6049 280.716L85.2213 277.247Z" fill="black"/>
<path d="M72.7555 277.113L71.0688 275.688L74.5323 271.603L67.6098 272.786L65.8003 271.267L73.1836 270.116L73.2518 262.082L75.2387 263.75L75.1468 270.907L78.7194 266.697L80.4061 268.122L72.7555 277.113Z" fill="black"/>
<path d="M69.0532 257.659C69.6898 258.297 70.1605 258.989 70.4788 259.717C70.7837 260.463 70.9298 261.199 70.9193 261.94C70.9088 262.681 70.7417 263.427 70.4137 264.148C70.1012 264.866 69.6392 265.527 69.0431 266.126L68.9453 266.218C68.3338 266.819 67.6727 267.286 66.9443 267.604C66.216 267.922 65.4824 268.084 64.7259 268.076C63.9694 268.067 63.2272 267.931 62.493 267.621C61.7588 267.31 61.0833 266.85 60.4642 266.225C59.8451 265.601 59.3764 264.924 59.0736 264.194C58.7708 263.463 58.6246 262.728 58.6197 261.989C58.6302 261.248 58.784 260.519 59.0944 259.785C59.4069 259.066 59.8668 258.391 60.4783 257.789L60.5761 257.697C61.1877 257.096 61.8488 256.629 62.575 256.295C63.3034 255.977 64.0349 255.8 64.7893 255.793C65.5438 255.786 66.286 255.922 67.0201 256.233C67.7409 256.56 68.4165 257.02 69.0532 257.659ZM67.7704 258.885C67.37 258.483 66.9399 258.21 66.4914 258.035C66.0274 257.861 65.5625 257.798 65.0658 257.849C64.5846 257.898 64.0849 258.044 63.5976 258.282C63.1125 258.536 62.6398 258.883 62.1817 259.338L62.0839 259.43C61.6546 259.865 61.3222 260.319 61.0558 260.796C60.8069 261.285 60.6508 261.763 60.6071 262.256C60.5633 262.75 60.6277 263.229 60.8004 263.694C60.9751 264.174 61.2539 264.609 61.6697 265.009C62.0876 265.425 62.5197 265.713 62.9837 265.887C63.4477 266.06 63.9301 266.137 64.4114 266.088C64.9102 266.052 65.3944 265.909 65.8796 265.654C66.3647 265.4 66.8374 265.054 67.28 264.601L67.3778 264.509C67.836 264.054 68.1797 263.567 68.4264 263.062C68.6578 262.558 68.7964 262.068 68.8226 261.561C68.8509 261.069 68.7844 260.574 68.5983 260.127C68.4123 259.68 68.1511 259.259 67.7704 258.885Z" fill="black"/>
<path d="M54.1746 259.36L49.4303 253.688L50.7607 252.581L54.0962 256.554L56.5859 254.473L53.9057 251.277L55.1784 250.209L57.8586 253.405L60.5038 251.192L56.9959 246.99L58.3263 245.883L63.2563 251.766L54.1746 259.36Z" fill="black"/>
<path d="M44.6481 247.266L43.4279 245.448L51.7986 239.821L48.9853 235.636L50.4292 234.671L54.4627 240.675L44.6481 247.266Z" fill="black"/>
<path d="M39.0235 238.675L35.3595 232.26L36.8643 231.397L39.4367 235.897L42.2424 234.293L40.1811 230.667L41.6128 229.845L43.672 233.455L46.6682 231.746L43.9522 226.997L45.457 226.134L49.2645 232.798L39.0235 238.675Z" fill="black"/>
<path d="M34.1511 230.062L33.1779 227.974L40.5506 221.129L30.5548 222.394L29.6746 220.53L42.0758 219.13L43.1575 221.439L34.1511 230.062Z" fill="black"/>
<path d="M28.612 217.778L26.0286 210.855L27.6615 210.242L29.4809 215.112L32.5231 213.979L31.0686 210.067L32.6129 209.497L34.0653 213.393L37.3023 212.187L35.3857 207.063L37.0031 206.452L39.6857 213.645L28.612 217.778Z" fill="black"/>
<path d="M24.983 207.644L24.3694 205.539L34.045 202.711L32.6224 197.867L34.2874 197.376L36.3235 204.325L24.983 207.644Z" fill="black"/>
<path d="M32.0357 185.782C32.1872 186.674 32.1737 187.51 31.9952 188.289C31.8168 189.068 31.5001 189.756 31.0607 190.35C30.6213 190.944 30.0612 191.46 29.3742 191.852C28.7047 192.257 27.9393 192.533 27.1087 192.676L26.9851 192.692C26.1391 192.838 25.3187 192.822 24.5568 192.657C23.7795 192.494 23.0784 192.195 22.4688 191.758C21.8592 191.32 21.3298 190.778 20.9075 190.095C20.4852 189.412 20.1958 188.664 20.0485 187.803C19.9011 186.942 19.9167 186.121 20.0797 185.344C20.2602 184.58 20.5614 183.894 20.9833 183.287C21.4207 182.677 21.9674 182.179 22.6368 181.774C23.3063 181.369 24.0717 181.093 24.9332 180.946L25.0569 180.929C25.9028 180.784 26.7212 180.784 27.483 180.949C28.2582 181.097 28.9594 181.396 29.5669 181.818C30.1899 182.237 30.7059 182.798 31.1415 183.463C31.5927 184.126 31.8863 184.905 32.0357 185.782ZM30.2911 186.032C30.2008 185.478 30.0106 185 29.736 184.596C29.4614 184.192 29.1178 183.861 28.6919 183.619C28.266 183.377 27.7865 183.206 27.2402 183.122C26.6938 183.038 26.1136 183.053 25.4665 183.156L25.3428 183.173C24.7421 183.269 24.2001 183.452 23.7129 183.691C23.2257 183.929 22.8282 184.25 22.5164 184.623C22.2045 184.995 21.9782 185.419 21.8397 185.91C21.7011 186.4 21.6769 186.923 21.7848 187.491C21.8771 188.061 22.0694 188.554 22.3461 188.973C22.6227 189.392 22.9663 189.724 23.3923 189.965C23.8203 190.223 24.2976 190.379 24.844 190.463C25.3903 190.546 25.9705 190.531 26.6001 190.415L26.7238 190.399C27.3709 190.296 27.9262 190.095 28.4093 189.826C28.8923 189.556 29.2877 189.22 29.5975 188.832C29.9073 188.444 30.1315 188.005 30.2567 187.532C30.3819 187.058 30.3793 186.571 30.2911 186.032Z" fill="black"/>
<path d="M18.8682 178.442L18.689 175.822L26.8629 170.254L18.335 170.85L18.1926 168.855L29.9781 168.025L30.1425 170.301L21.4846 176.249L30.5267 175.615L30.6692 177.61L18.8682 178.442Z" fill="black"/>
<path d="M18.1303 164.882L18.2374 157.487L19.971 157.506L19.8975 162.693L23.1441 162.728L23.1981 158.567L24.8544 158.596L24.8003 162.757L28.2541 162.812L28.3366 157.341L30.0701 157.359L29.9541 165.038L18.1303 164.882Z" fill="black"/>
<path d="M26.1686 153.273C25.8336 153.24 25.5409 153.169 25.2882 153.046C25.0356 152.922 24.7963 152.781 24.5817 152.59C24.3692 152.414 24.1701 152.22 23.9822 151.994C23.7944 151.767 23.6107 151.572 23.4229 151.345C23.1411 151.005 22.8656 150.712 22.5963 150.465C22.3271 150.218 22.0084 150.072 21.658 150.04C21.2436 150.002 20.8943 150.096 20.6235 150.305C20.3527 150.515 20.1975 150.882 20.1558 151.391C20.1141 151.9 20.2362 152.34 20.553 152.707C20.8678 153.058 21.2937 153.3 21.8576 153.397L21.7052 155.306C21.1764 155.235 20.6969 155.064 20.2731 154.837C19.8492 154.611 19.5098 154.311 19.2393 153.938C18.971 153.581 18.7716 153.151 18.6453 152.68C18.519 152.209 18.4813 151.695 18.5168 151.14C18.5635 150.551 18.6846 150.047 18.8624 149.614C19.0402 149.181 19.2789 148.85 19.5744 148.59C19.8699 148.33 20.1913 148.145 20.554 148.033C20.9166 147.921 21.2897 147.887 21.6886 147.928C21.9906 147.95 22.2504 148.01 22.4855 148.12C22.7185 148.214 22.9402 148.342 23.1352 148.504C23.3436 148.649 23.5252 148.829 23.7068 149.01C23.8904 149.205 24.0587 149.403 24.2114 149.603C24.3817 149.816 24.552 150.029 24.7202 150.227C24.8885 150.424 25.0546 150.606 25.2341 150.771C25.4136 150.936 25.589 151.07 25.7932 151.184C25.9819 151.3 26.1974 151.381 26.4355 151.396L26.9602 151.436L26.7994 153.283L26.1686 153.273ZM30.5318 152.718C30.5023 153.084 30.3563 153.403 30.0742 153.645C29.8075 153.886 29.4912 153.991 29.1408 153.959C28.7749 153.93 28.4871 153.78 28.258 153.48C28.0309 153.196 27.9388 152.862 27.9683 152.496C27.9978 152.13 28.1458 151.827 28.4146 151.602C28.6813 151.362 28.9975 151.256 29.3635 151.286C29.7139 151.317 30.0016 151.468 30.2287 151.752C30.4558 152.036 30.5633 152.368 30.5318 152.718Z" fill="black"/>
</svg>
