<svg width="24" height="24" viewBox="0 0 24 24" fill="none" xmlns="http://www.w3.org/2000/svg">
<path d="M13.0002 18.0002C13.0002 18.7345 12.2352 19.2184 11.5718 18.9038C11.444 18.8432 11.222 18.7289 10.9193 18.5588C10.4252 18.2813 9.87729 17.944 9.28911 17.545C7.61597 16.41 5.94516 15.0036 4.38524 13.3084C2.77989 11.5577 1.6371 9.89143 0.857125 8.33578C0.376569 7.37732 0.122036 6.65174 0.024717 6.22022C-0.0967851 5.68146 0.241464 5.14622 0.780218 5.02472C1.31897 4.90321 1.85422 5.24146 1.97572 5.78022C1.98733 5.83169 2.40564 6.96201 2.64499 7.43937C3.34263 8.83081 4.3802 10.3437 5.82649 11.9209C7.30668 13.5296 8.86045 14.8375 10.4119 15.8899C10.6139 16.0269 10.8102 16.1558 11.0002 16.2764L11.0014 7.00022H10.0025C9.45025 7.00022 9.00254 6.5525 9.00254 6.00022C9.00254 5.44793 9.45025 5.00022 10.0025 5.00022H11.0014C12.1062 5.00022 13.0002 5.89732 13.0002 7.00269V12.0002C13.0002 12.0002 14.0257 12.0003 14.0387 12.0005C15.4371 11.9873 17.2294 11.2538 18.5284 10.019C18.8078 9.75352 19.1239 9.41504 19.4682 9.01515C19.695 8.75172 19.9316 8.46445 20.1758 8.15716C20.6472 7.56394 21.1237 6.92576 21.5799 6.28727C21.7397 6.06361 22.144 5.48127 22.1712 5.44099C22.4801 4.98314 23.1016 4.86235 23.5594 5.17121C24.0173 5.48006 24.1381 6.1016 23.8292 6.55945C23.7978 6.60601 23.3731 7.2178 23.2071 7.45008C22.7325 8.11428 22.2364 8.77878 21.7416 9.4014C21.4819 9.72829 21.2287 10.0356 20.9838 10.3201C20.5992 10.7668 20.2394 11.1521 19.9063 11.4687C19.2523 12.0903 18.5036 12.6116 17.7196 13.0166C18.388 13.2996 19.0513 13.6276 19.6406 13.9823C20.1938 14.3153 20.7595 14.7132 21.3317 15.1625C21.9287 15.6313 22.5019 16.1313 23.0326 16.6313C23.2186 16.8065 23.6874 17.2719 23.7232 17.3094C24.1048 17.7087 24.0904 18.3417 23.6911 18.7232C23.2918 19.1048 22.6588 19.0904 22.2772 18.6911C22.2518 18.6645 21.8325 18.2484 21.6612 18.0871C21.1714 17.6256 20.6424 17.1641 20.0965 16.7355C19.5853 16.3341 19.0857 15.9827 18.6091 15.6958C17.0513 14.7581 14.8195 14.0203 14.0317 14.0006C14.0212 14.0007 13.0002 14.0007 13.0002 14.0007V18.0002Z" fill="white"/>
</svg>
